<svg width="310" height="49" viewBox="0 0 310 49" fill="none" xmlns="http://www.w3.org/2000/svg">
<path d="M5.70149 15.6229L0.388848 10.0332L0.106261 9.85573H24.0697L34.4971 19.9039L45.2072 9.85573H53.4022L39.1315 24.2293L53.5718 38.2702H44.9246L34.6384 28.1998L23.9566 38.2702H0.0214844L5.70149 32.5695H21.6394L29.8909 24.2293L21.0742 15.6229H5.70149Z" fill="white"/>
<path d="M6.04059 26.9798V21.0795H21.0742L24.0697 24.2293L21.0742 26.9798H6.04059Z" fill="white"/>
<path d="M71.1099 38.4921C68.9854 38.4921 67.0052 38.1511 65.1691 37.4692C63.3594 36.761 61.7856 35.7643 60.448 34.4791C59.1103 33.1939 58.0612 31.6857 57.3005 29.9546C56.5661 28.2235 56.1989 26.322 56.1989 24.2499C56.1989 22.1778 56.5661 20.2762 57.3005 18.5451C58.0612 16.8141 59.1103 15.3059 60.448 14.0207C61.8119 12.7355 63.3987 11.7519 65.2085 11.07C67.0183 10.3618 68.9985 10.0077 71.1493 10.0077C73.5361 10.0077 75.6869 10.4274 77.6016 11.2667C79.5425 12.0798 81.1687 13.2863 82.4801 14.8862L78.3884 18.6632C77.4442 17.5878 76.395 16.7878 75.241 16.2632C74.0869 15.7124 72.8279 15.437 71.464 15.437C70.1788 15.437 68.9985 15.6469 67.9232 16.0665C66.8478 16.4862 65.9167 17.0895 65.1298 17.8763C64.3429 18.6632 63.7266 19.5943 63.2807 20.6697C62.861 21.745 62.6512 22.9385 62.6512 24.2499C62.6512 25.5613 62.861 26.7547 63.2807 27.8301C63.7266 28.9055 64.3429 29.8366 65.1298 30.6235C65.9167 31.4103 66.8478 32.0136 67.9232 32.4332C68.9985 32.8529 70.1788 33.0627 71.464 33.0627C72.8279 33.0627 74.0869 32.8004 75.241 32.2759C76.395 31.7251 77.4442 30.8989 78.3884 29.7973L82.4801 33.5742C81.1687 35.1741 79.5425 36.3938 77.6016 37.2331C75.6869 38.0724 73.523 38.4921 71.1099 38.4921ZM92.6463 21.5746H105.905V26.5318H92.6463V21.5746ZM93.1184 32.9054H108.108V38.02H86.7842V10.4798H107.597V15.5944H93.1184V32.9054ZM113.179 38.02V10.4798H119.553V32.8267H133.362V38.02H113.179ZM145.857 38.4921C143.654 38.4921 141.543 38.2036 139.523 37.6265C137.503 37.0233 135.877 36.2495 134.644 35.3053L136.808 30.5054C137.989 31.3448 139.379 32.0398 140.979 32.5906C142.605 33.1152 144.244 33.3775 145.896 33.3775C147.155 33.3775 148.165 33.2594 148.926 33.0234C149.713 32.7611 150.29 32.407 150.657 31.9611C151.024 31.5152 151.208 31.0038 151.208 30.4267C151.208 29.6923 150.919 29.1153 150.342 28.6957C149.765 28.2498 149.005 27.8957 148.06 27.6334C147.116 27.3449 146.067 27.0826 144.913 26.8465C143.785 26.5842 142.644 26.2695 141.49 25.9023C140.362 25.5351 139.326 25.063 138.382 24.4859C137.438 23.9089 136.664 23.1483 136.061 22.2041C135.484 21.2598 135.195 20.0533 135.195 18.5845C135.195 17.0108 135.615 15.5813 136.454 14.2961C137.32 12.9847 138.605 11.9486 140.31 11.188C142.041 10.4011 144.205 10.0077 146.801 10.0077C148.532 10.0077 150.237 10.2175 151.916 10.6372C153.595 11.0306 155.077 11.6339 156.362 12.447L154.395 17.2862C153.109 16.5518 151.824 16.0141 150.539 15.6731C149.254 15.3059 147.995 15.1223 146.762 15.1223C145.529 15.1223 144.519 15.2666 143.733 15.5551C142.946 15.8436 142.382 16.2239 142.041 16.696C141.7 17.1419 141.529 17.6665 141.529 18.2697C141.529 18.9779 141.818 19.555 142.395 20.0008C142.972 20.4205 143.733 20.7615 144.677 21.0238C145.621 21.286 146.657 21.5483 147.785 21.8106C148.939 22.0729 150.08 22.3745 151.208 22.7155C152.362 23.0565 153.411 23.5155 154.355 24.0925C155.299 24.6695 156.06 25.4302 156.637 26.3744C157.24 27.3186 157.542 28.5121 157.542 29.9546C157.542 31.5021 157.109 32.9185 156.244 34.2037C155.378 35.4889 154.08 36.5249 152.349 37.3118C150.644 38.0986 148.48 38.4921 145.857 38.4921ZM161.897 38.02V10.4798H168.271V38.02H161.897ZM188.183 38.4921C186.006 38.4921 183.987 38.138 182.124 37.4298C180.288 36.7216 178.688 35.7249 177.325 34.4397C175.987 33.1545 174.938 31.6464 174.177 29.9153C173.443 28.1842 173.075 26.2957 173.075 24.2499C173.075 22.2041 173.443 20.3156 174.177 18.5845C174.938 16.8534 176 15.3452 177.364 14.06C178.728 12.7748 180.328 11.7781 182.164 11.07C184 10.3618 185.993 10.0077 188.144 10.0077C190.321 10.0077 192.314 10.3618 194.124 11.07C195.96 11.7781 197.547 12.7748 198.884 14.06C200.248 15.3452 201.311 16.8534 202.071 18.5845C202.832 20.2894 203.212 22.1778 203.212 24.2499C203.212 26.2957 202.832 28.1973 202.071 29.9546C201.311 31.6857 200.248 33.1939 198.884 34.4791C197.547 35.7381 195.96 36.7216 194.124 37.4298C192.314 38.138 190.334 38.4921 188.183 38.4921ZM188.144 33.0627C189.377 33.0627 190.504 32.8529 191.527 32.4332C192.576 32.0136 193.495 31.4103 194.281 30.6235C195.068 29.8366 195.671 28.9055 196.091 27.8301C196.537 26.7547 196.76 25.5613 196.76 24.2499C196.76 22.9385 196.537 21.745 196.091 20.6697C195.671 19.5943 195.068 18.6632 194.281 17.8763C193.521 17.0895 192.616 16.4862 191.567 16.0665C190.518 15.6469 189.377 15.437 188.144 15.437C186.911 15.437 185.77 15.6469 184.721 16.0665C183.698 16.4862 182.793 17.0895 182.006 17.8763C181.219 18.6632 180.603 19.5943 180.157 20.6697C179.738 21.745 179.528 22.9385 179.528 24.2499C179.528 25.5351 179.738 26.7285 180.157 27.8301C180.603 28.9055 181.206 29.8366 181.967 30.6235C182.754 31.4103 183.672 32.0136 184.721 32.4332C185.77 32.8529 186.911 33.0627 188.144 33.0627ZM208.002 38.02V10.4798H219.923C222.389 10.4798 224.513 10.8864 226.297 11.6995C228.08 12.4863 229.457 13.6273 230.428 15.1223C231.398 16.6173 231.883 18.4009 231.883 20.473C231.883 22.5188 231.398 24.2892 230.428 25.7843C229.457 27.2531 228.08 28.3809 226.297 29.1678C224.513 29.9546 222.389 30.3481 219.923 30.3481H211.543L214.376 27.5547V38.02H208.002ZM225.51 38.02L218.625 28.0268H225.431L232.395 38.02H225.51ZM214.376 28.2629L211.543 25.2728H219.569C221.536 25.2728 223.005 24.8532 223.976 24.0138C224.946 23.1483 225.431 21.968 225.431 20.473C225.431 18.9517 224.946 17.7714 223.976 16.9321C223.005 16.0928 221.536 15.6731 219.569 15.6731H211.543L214.376 12.6437V28.2629Z" fill="white"/>
<path d="M243.314 21.8893L242.261 21.5995L241.88 22.9822H243.314V21.8893ZM245.911 12.447L246.973 12.1902L245.979 8.07785L244.857 12.1572L245.911 12.447ZM246.777 16.0272V17.1201H248.165L247.839 15.7704L246.777 16.0272ZM243.983 15.0436L243.225 15.8308L243.24 15.8451L243.255 15.8588L243.983 15.0436ZM244.023 9.57493L244.766 10.3758L244.774 10.3688L244.781 10.3616L244.023 9.57493ZM249.452 9.57493L248.679 10.3477L248.686 10.355L248.694 10.3621L249.452 9.57493ZM250.435 13.3125L249.355 13.1463L249.35 13.1839L249.346 13.2218L250.435 13.3125ZM250.16 14.4535L249.13 14.0897L249.12 14.1172L249.112 14.1451L250.16 14.4535ZM249.491 16.2239L248.487 15.7934L248.482 15.8045L248.478 15.8156L249.491 16.2239ZM247.209 21.8893V22.9822H247.947L248.223 22.2976L247.209 21.8893ZM244.368 22.1791L246.965 12.7368L244.857 12.1572L242.261 21.5995L244.368 22.1791ZM244.849 12.7038L245.714 16.284L247.839 15.7704L246.973 12.1902L244.849 12.7038ZM246.777 14.9343C245.876 14.9343 245.216 14.6793 244.711 14.2284L243.255 15.8588C244.219 16.7193 245.422 17.1201 246.777 17.1201V14.9343ZM244.741 14.2564C244.284 13.8163 244.014 13.2026 244.014 12.2896H241.828C241.828 13.6847 242.266 14.907 243.225 15.8308L244.741 14.2564ZM244.014 12.2896C244.014 11.4236 244.284 10.8239 244.766 10.3758L243.279 8.77409C242.293 9.68981 241.828 10.9 241.828 12.2896H244.014ZM244.781 10.3616C245.3 9.8613 245.928 9.60553 246.737 9.60553V7.4198C245.396 7.4198 244.214 7.87221 243.264 8.78824L244.781 10.3616ZM246.737 9.60553C247.581 9.60553 248.197 9.86594 248.679 10.3477L250.225 8.80216C249.29 7.86757 248.097 7.4198 246.737 7.4198V9.60553ZM248.694 10.3621C249.156 10.8072 249.421 11.411 249.421 12.2896H251.607C251.607 10.9125 251.164 9.70658 250.21 8.78772L248.694 10.3621ZM249.421 12.2896C249.421 12.5743 249.399 12.8597 249.355 13.1463L251.516 13.4787C251.576 13.0834 251.607 12.6869 251.607 12.2896H249.421ZM249.346 13.2218C249.331 13.4096 249.27 13.6929 249.13 14.0897L251.191 14.8172C251.365 14.3222 251.488 13.8449 251.525 13.4033L249.346 13.2218ZM249.112 14.1451C248.998 14.5303 248.795 15.0749 248.487 15.7934L250.496 16.6544C250.817 15.9041 251.06 15.2684 251.209 14.7618L249.112 14.1451ZM248.478 15.8156L246.196 21.481L248.223 22.2976L250.505 16.6322L248.478 15.8156ZM247.209 20.7964H243.314V22.9822H247.209V20.7964ZM264.281 38.02H263.188V39.1128H264.281V38.02ZM264.281 33.8889L263.531 33.0944L263.188 33.4179V33.8889H264.281ZM274.904 23.8565L274.17 23.0467L274.162 23.0542L274.153 23.0619L274.904 23.8565ZM276.753 21.8106L277.668 22.4076L276.753 21.8106ZM277.54 20.1582L276.498 19.8291L276.49 19.8544L276.483 19.8801L277.54 20.1582ZM276.635 16.2633L275.941 17.1077L275.958 17.1211L275.974 17.1339L276.635 16.2633ZM270.143 16.0272L269.697 15.0296L269.687 15.0341L270.143 16.0272ZM267.665 18.1124L267.073 19.0312L267.944 19.5922L268.551 18.7522L267.665 18.1124ZM263.022 15.1223L262.113 14.5161L261.497 15.4399L262.43 16.0411L263.022 15.1223ZM267.429 11.3847L266.951 10.4018L267.429 11.3847ZM279.31 11.0306L278.863 12.0279L278.873 12.0325L278.884 12.0369L279.31 11.0306ZM282.89 13.824L281.993 14.4481L281.998 14.4546L282.002 14.461L282.89 13.824ZM283.835 20.827L282.778 20.5474L282.775 20.5584L282.773 20.5696L283.835 20.827ZM282.497 23.5811L281.603 22.9527L281.597 22.9609L281.591 22.9692L282.497 23.5811ZM279.586 26.8465L278.838 26.0498L278.836 26.051L279.586 26.8465ZM270.773 35.1479L269.805 35.6562L270.475 36.9301L271.522 35.9434L270.773 35.1479ZM269.553 32.8267V31.7338H267.744L268.586 33.335L269.553 32.8267ZM285.094 32.8267H286.186V31.7338H285.094V32.8267ZM285.094 38.02V39.1128H286.186V38.02H285.094ZM265.374 38.02V33.8889H263.188V38.02H265.374ZM265.032 34.6835L275.654 24.651L274.153 23.0619L263.531 33.0944L265.032 34.6835ZM275.638 24.6663C276.512 23.8742 277.203 23.1207 277.668 22.4076L275.838 21.2136C275.516 21.7071 274.975 22.3174 274.17 23.0467L275.638 24.6663ZM277.668 22.4076C278.102 21.7422 278.426 21.083 278.597 20.4363L276.483 19.8801C276.391 20.2302 276.19 20.6725 275.838 21.2136L277.668 22.4076ZM278.582 20.4873C278.765 19.9075 278.869 19.336 278.869 18.7812H276.683C276.683 19.0658 276.629 19.4123 276.498 19.8291L278.582 20.4873ZM278.869 18.7812C278.869 17.3974 278.373 16.2098 277.295 15.3926L275.974 17.1339C276.418 17.4707 276.683 17.9618 276.683 18.7812H278.869ZM277.329 15.4188C276.32 14.5902 274.94 14.2655 273.369 14.2655V16.4512C274.684 16.4512 275.481 16.7298 275.941 17.1077L277.329 15.4188ZM273.369 14.2655C272.07 14.2655 270.842 14.5174 269.697 15.0296L270.59 17.0248C271.438 16.6452 272.36 16.4512 273.369 16.4512V14.2655ZM269.687 15.0341C268.53 15.5657 267.561 16.3897 266.779 17.4725L268.551 18.7522C269.132 17.9466 269.816 17.3804 270.6 17.0203L269.687 15.0341ZM268.256 17.1936L263.614 14.2035L262.43 16.0411L267.073 19.0312L268.256 17.1936ZM263.931 15.7285C264.861 14.3338 266.173 13.2102 267.906 12.3676L266.951 10.4018C264.907 11.3952 263.281 12.7633 262.113 14.5161L263.931 15.7285ZM267.906 12.3676C269.622 11.5335 271.631 11.1006 273.96 11.1006V8.91484C271.357 8.91484 269.012 9.39988 266.951 10.4018L267.906 12.3676ZM273.96 11.1006C275.885 11.1006 277.511 11.4216 278.863 12.0279L279.757 10.0334C278.067 9.27578 276.125 8.91484 273.96 8.91484V11.1006ZM278.884 12.0369C280.269 12.624 281.288 13.4341 281.993 14.4481L283.788 13.1999C282.814 11.8009 281.446 10.7487 279.737 10.0244L278.884 12.0369ZM282.002 14.461C282.718 15.4581 283.096 16.6706 283.096 18.1517H285.282C285.282 16.2756 284.794 14.6029 283.778 13.1869L282.002 14.461ZM283.096 18.1517C283.096 18.9459 282.991 19.7437 282.778 20.5474L284.891 21.1067C285.151 20.1268 285.282 19.1411 285.282 18.1517H283.096ZM282.773 20.5696C282.604 21.266 282.231 22.0592 281.603 22.9527L283.391 24.2094C284.127 23.162 284.646 22.1192 284.897 21.0845L282.773 20.5696ZM281.591 22.9692C280.998 23.8477 280.09 24.8739 278.838 26.0498L280.334 27.6433C281.651 26.4061 282.685 25.2553 283.403 24.1929L281.591 22.9692ZM278.836 26.051L270.023 34.3524L271.522 35.9434L280.335 27.642L278.836 26.051ZM271.74 34.6396L270.521 32.3184L268.586 33.335L269.805 35.6562L271.74 34.6396ZM269.553 33.9195H285.094V31.7338H269.553V33.9195ZM284.001 32.8267V38.02H286.186V32.8267H284.001ZM285.094 36.9271H264.281V39.1128H285.094V36.9271ZM290.95 37.7446L290.657 38.7976L290.671 38.8012L290.95 37.7446ZM286.15 35.5413L285.175 35.0463L284.751 35.8811L285.511 36.4282L286.15 35.5413ZM288.628 30.6628L289.27 29.778L288.234 29.0268L287.654 30.1678L288.628 30.6628ZM292.287 32.4726L291.953 33.5132L292.287 32.4726ZM300.274 32.1972L300.892 33.0985L300.274 32.1972ZM293.586 26.217H292.493V27.3099H293.586V26.217ZM293.586 22.0073L292.766 21.2843L292.493 21.5941V22.0073H293.586ZM301.257 13.3125L302.301 12.9886L301.725 11.1311L300.438 12.5895L301.257 13.3125ZM301.966 15.5944V16.6873H303.449L303.009 15.2705L301.966 15.5944ZM287.527 15.5944H286.434V16.6873H287.527V15.5944ZM287.527 10.4798V9.38696H286.434V10.4798H287.527ZM306.805 10.4798H307.898V9.38696H306.805V10.4798ZM306.805 14.6108L307.626 15.3318L307.898 15.0225V14.6108H306.805ZM299.172 23.3057L298.629 24.2538L299.404 24.6982L299.994 24.0266L299.172 23.3057ZM295.946 21.4565V20.3637H291.842L295.403 22.4047L295.946 21.4565ZM305.467 23.7384L304.746 24.5594L305.467 23.7384ZM306.844 33.9676L307.778 34.5353L307.783 34.5272L306.844 33.9676ZM303.107 37.2331L302.618 36.2556L303.107 37.2331ZM296.654 37.3992C294.836 37.3992 293.028 37.1627 291.228 36.6879L290.671 38.8012C292.648 39.3231 294.644 39.5849 296.654 39.5849V37.3992ZM291.242 36.6916C289.452 36.1944 287.975 35.5092 286.788 34.6544L285.511 36.4282C286.947 37.4619 288.67 38.2456 290.657 38.7976L291.242 36.6916ZM287.124 36.0364L289.603 31.1578L287.654 30.1678L285.175 35.0463L287.124 36.0364ZM287.987 31.5476C289.141 32.3841 290.467 33.0364 291.953 33.5132L292.621 31.4319C291.327 31.017 290.214 30.4627 289.27 29.778L287.987 31.5476ZM291.953 33.5132C293.448 33.9926 294.964 34.2343 296.497 34.2343V32.0486C295.197 32.0486 293.907 31.8443 292.621 31.4319L291.953 33.5132ZM296.497 34.2343C298.225 34.2343 299.728 33.8964 300.892 33.0985L299.656 31.2959C298.983 31.757 297.969 32.0486 296.497 32.0486V34.2343ZM300.892 33.0985C302.103 32.2678 302.744 31.067 302.744 29.6005H300.558C300.558 30.3373 300.28 30.8676 299.656 31.2959L300.892 33.0985ZM302.744 29.6005C302.744 28.2202 302.185 27.0623 301.082 26.2443L299.78 27.9996C300.304 28.3881 300.558 28.8826 300.558 29.6005H302.744ZM301.082 26.2443C299.983 25.4282 298.379 25.1242 296.497 25.1242V27.3099C298.235 27.3099 299.254 27.6091 299.78 27.9996L301.082 26.2443ZM296.497 25.1242H293.586V27.3099H296.497V25.1242ZM294.678 26.217V22.0073H292.493V26.217H294.678ZM294.405 22.7304L302.077 14.0356L300.438 12.5895L292.766 21.2843L294.405 22.7304ZM300.214 13.6364L300.922 15.9183L303.009 15.2705L302.301 12.9886L300.214 13.6364ZM301.966 14.5016H287.527V16.6873H301.966V14.5016ZM288.62 15.5944V10.4798H286.434V15.5944H288.62ZM287.527 11.5727H306.805V9.38696H287.527V11.5727ZM305.712 10.4798V14.6108H307.898V10.4798H305.712ZM305.984 13.8899L298.351 22.5847L299.994 24.0266L307.626 15.3318L305.984 13.8899ZM299.716 22.3575L296.49 20.5084L295.403 22.4047L298.629 24.2538L299.716 22.3575ZM295.946 22.5494H297.795V20.3637H295.946V22.5494ZM297.795 22.5494C301.035 22.5494 303.29 23.2797 304.746 24.5594L306.189 22.9175C304.183 21.1546 301.323 20.3637 297.795 20.3637V22.5494ZM304.746 24.5594C306.231 25.8648 306.971 27.5153 306.971 29.6005H309.157C309.157 26.9122 308.165 24.6546 306.189 22.9175L304.746 24.5594ZM306.971 29.6005C306.971 30.9457 306.62 32.2087 305.905 33.408L307.783 34.5272C308.694 32.9987 309.157 31.3504 309.157 29.6005H306.971ZM305.91 33.4C305.224 34.5296 304.149 35.4898 302.618 36.2556L303.595 38.2106C305.421 37.2977 306.839 36.081 307.778 34.5353L305.91 33.4ZM302.618 36.2556C301.139 36.995 299.171 37.3992 296.654 37.3992V39.5849C299.383 39.5849 301.717 39.1498 303.595 38.2106L302.618 36.2556Z" fill="white"/>
</svg>
